HIERARCHY
ROOT Hips
{
	OFFSET -3.958830 18.904000 13.208200
	CHANNELS 6 Xposition Yposition Zposition Zrotation Yrotation Xrotation 
	JOINT LHipJoint
	{
		OFFSET 0.000000 0.000000 0.000000
		CHANNELS 3 Zrotation Yrotation Xrotation
		JOINT LeftUpLeg
		{
			OFFSET 1.800000 -1.400000 0.085000
			CHANNELS 3 Zrotation Yrotation Xrotation
			JOINT LeftLeg
			{
				OFFSET 2.215000 -6.000000 0.000000
				CHANNELS 3 Zrotation Yrotation Xrotation
				JOINT LeftFoot
				{
					OFFSET 2.500000 -6.900000 0.000000
					CHANNELS 3 Zrotation Yrotation Xrotation
					JOINT LeftToeBase
					{
						OFFSET 0.200000 -0.500000 1.950000
						CHANNELS 3 Zrotation Yrotation Xrotation
						End Site
						{
							OFFSET 0.000000 0.000000 0.000000
						}
					}
				}
			}
		}
	}
	JOINT RHipJoint
	{
		OFFSET 0.000000 0.000000 0.000000
		CHANNELS 3 Zrotation Yrotation Xrotation
		JOINT RightUpLeg
		{
			OFFSET -1.800000 -1.400000 0.085000
			CHANNELS 3 Zrotation Yrotation Xrotation
			JOINT RightLeg
			{
				OFFSET -2.215000 -6.000000 0.000000
				CHANNELS 3 Zrotation Yrotation Xrotation
				JOINT RightFoot
				{
					OFFSET -2.500000 -6.900000 0.000000
					CHANNELS 3 Zrotation Yrotation Xrotation
					JOINT RightToeBase
					{
						OFFSET -0.200000 -0.500000 1.950000
						CHANNELS 3 Zrotation Yrotation Xrotation
						End Site
						{
							OFFSET 0.000000 0.000000 0.000000
						}
					}
				}
			}
		}
	}
	JOINT LowerBack
	{
		OFFSET 0.000000 0.000000 0.000000
		CHANNELS 3 Zrotation Yrotation Xrotation
		JOINT Spine
		{
			OFFSET -0.087000 1.940000 -0.288900
			CHANNELS 3 Zrotation Yrotation Xrotation
			JOINT Spine1
			{
				OFFSET 0.000000 1.950000 0.060000
				CHANNELS 3 Zrotation Yrotation Xrotation
				JOINT Neck
				{
					OFFSET 0.000000 0.000000 0.000000
					CHANNELS 3 Zrotation Yrotation Xrotation
					JOINT Neck1
					{
						OFFSET 0.000000 1.600000 0.340000
						CHANNELS 3 Zrotation Yrotation Xrotation
						JOINT Head
						{
							OFFSET 0.000000 1.667000 -0.240000
							CHANNELS 3 Zrotation Yrotation Xrotation
							End Site
							{
								OFFSET 0.000000 0.000000 0.000000
							}
						}
					}
				}
				JOINT LeftShoulder
				{
					OFFSET 0.000000 0.000000 0.000000
					CHANNELS 3 Zrotation Yrotation Xrotation
					JOINT LeftArm
					{
						OFFSET 2.700000 1.550000 -0.730000
						CHANNELS 3 Zrotation Yrotation Xrotation
						JOINT LeftForeArm
						{
							OFFSET 5.450000 0.000000 0.000000
							CHANNELS 3 Zrotation Yrotation Xrotation
							JOINT LeftHand
							{
								OFFSET 3.450000 0.000000 0.000000
								CHANNELS 3 Zrotation Yrotation Xrotation
								JOINT LeftHandIndex1
								{
									OFFSET 0.750000 0.000000 0.000000
									CHANNELS 3 Zrotation Yrotation Xrotation
									End Site
									{
										OFFSET 0.000000 0.000000 0.000000
									}
								}
							}
						}
					}
				}
				JOINT RightShoulder
				{
					OFFSET 0.000000 0.000000 0.000000
					CHANNELS 3 Zrotation Yrotation Xrotation
					JOINT RightArm
					{
						OFFSET -2.700000 1.550000 -0.730000
						CHANNELS 3 Zrotation Yrotation Xrotation
						JOINT RightForeArm
						{
							OFFSET -5.450000 0.000000 0.000000
							CHANNELS 3 Zrotation Yrotation Xrotation
							JOINT RightHand
							{
								OFFSET -3.450000 0.000000 0.000000
								CHANNELS 3 Zrotation Yrotation Xrotation
								JOINT RightHandIndex1
								{
									OFFSET -0.750000 0.000000 0.000000
									CHANNELS 3 Zrotation Yrotation Xrotation
									End Site
									{
										OFFSET 0.000000 0.000000 0.000000
									}
								}
							}
						}
					}
				}
			}
		}
	}
}
MOTION
Frames: 14
Frame Time: 0.016667
-0.376460 16.669140 -4.179700 -2.384187 -3.786077 3.754286 -15.173451 13.650504 2.826506 2.288154 -0.299348 -6.196188 -7.988943 6.570372 14.370509 0.035020 4.465183 3.236801 0.300780 0.110390 0.098180 18.263014 -10.180150 3.452709 -4.798421 4.445409 -35.935699 4.856006 -4.785741 21.752717 -0.050294 -2.681290 3.440829 0.007660 0.329850 0.324990 -3.503171 -2.688858 -7.594968 8.839615 -3.453620 11.032444 -5.653753 -2.611681 -3.020697 3.538494 -2.401255 -5.980130 -5.684144 6.454732 31.594599 1.617410 5.060560 -4.225920 -22.551415 3.314107 -1.840418 -49.895005 -3.103573 -4.543220 -3.485606 -13.300313 -0.849688 -3.819226 2.956353 0.356900 0.180900 0.060120 0.344170 15.650634 -3.068601 3.517521 55.125675 -10.004169 -14.183074 18.766678 28.709316 1.673514 2.284439 -1.469932 -0.069770 0.051330 -0.165530 0.016570 
-0.388300 16.662390 -4.167660 -2.170484 -4.025585 3.817680 -15.187549 13.654585 2.830097 2.161268 -0.257266 -6.082973 -8.061299 6.621454 14.456587 0.045172 4.485185 3.231177 0.294940 0.109240 0.091390 18.253167 -10.168766 3.445555 -4.597197 4.423116 -35.971642 4.490756 -4.577928 21.198463 -0.033126 -2.581255 3.479097 0.007340 0.333630 0.318900 -3.465173 -2.713647 -7.582221 8.399415 -3.425282 10.910061 -5.537779 -2.639756 -2.970938 3.486828 -2.425573 -6.010380 -5.695216 6.587313 31.332382 1.803430 5.121450 -4.202150 -21.984865 3.595767 -1.803969 -50.071850 -2.960568 -4.611810 -3.478413 -13.363945 -0.847295 -3.821048 2.954301 0.351860 0.181300 0.055860 0.342810 15.239463 -3.296576 3.499726 55.356463 -10.093014 -14.294300 19.221588 28.977077 1.788295 2.284577 -1.473746 -0.071720 0.054360 -0.163340 0.019340 
-0.410780 16.650150 -4.141070 -1.795647 -4.395363 3.981734 -15.213379 13.657123 2.828142 1.883487 -0.167454 -5.833658 -8.053207 6.661543 14.528739 0.063327 4.515867 3.231867 0.278690 0.095300 0.073910 18.238320 -10.146173 3.430591 -4.220221 4.378387 -36.024659 3.878783 -4.226158 20.149071 0.002776 -2.417860 3.547147 0.003670 0.354770 0.313330 -3.402536 -2.751354 -7.542929 7.661968 -3.393729 10.493075 -5.358205 -2.718216 -2.794705 3.404244 -2.447029 -6.061456 -5.643551 6.785335 30.656941 2.061610 5.192000 -3.717470 -21.036724 4.048861 -1.711960 -50.309496 -2.612227 -4.774369 -3.398425 -13.510396 -0.850822 -3.834572 2.954145 0.334450 0.194420 0.038730 0.345840 14.544965 -3.692073 3.507827 55.696608 -10.407859 -14.535089 20.217006 29.523354 2.026215 2.280338 -1.490887 -0.078650 0.059440 -0.158250 0.026930 
-0.438610 16.636560 -4.105250 -1.389053 -4.935433 4.190121 -15.244926 13.651376 2.829207 1.542794 -0.030102 -5.432252 -8.068662 6.656188 14.268191 0.075461 4.538117 3.240057 0.258760 0.074530 0.050730 18.223601 -10.108337 3.418959 -3.721953 4.402543 -36.187417 3.103657 -3.892091 19.447085 0.036365 -2.291324 3.604362 -0.001640 0.385220 0.310040 -3.330317 -2.799497 -7.498255 6.844832 -3.387784 9.990776 -5.174527 -2.835266 -2.663232 3.344365 -2.455831 -6.085522 -5.519498 7.109017 29.754464 2.347990 5.369600 -3.175070 -19.993382 4.691154 -1.636930 -50.502234 -2.047360 -5.026697 -3.107559 -13.704015 -0.880851 -3.854559 2.953810 0.318090 0.213530 0.015410 0.350670 13.726150 -4.291852 3.495307 56.000339 -10.842787 -14.817543 21.460626 30.347664 2.380827 2.266670 -1.514477 -0.090420 0.066330 -0.148030 0.033930 
-0.465770 16.626430 -4.066210 -1.148210 -5.493699 4.325594 -15.262400 13.661751 2.823088 1.238387 0.070801 -5.146968 -7.850555 6.637041 14.335717 0.083205 4.555584 3.246074 0.236460 0.050940 0.029990 18.215792 -10.086091 3.409232 -3.205282 4.411066 -36.079107 2.663072 -3.648773 18.621931 0.064400 -2.178913 3.656044 -0.011070 0.410410 0.306460 -3.288147 -2.847653 -7.460776 6.420740 -3.489330 9.634670 -5.190280 -3.011806 -2.589539 3.371969 -2.465434 -6.161547 -5.416166 7.498609 29.026292 2.537770 5.687200 -2.740070 -19.046213 5.263408 -1.551751 -50.571682 -1.364669 -5.328088 -2.650098 -13.794031 -0.925655 -3.872311 2.948134 0.308010 0.228730 -0.003160 0.351320 12.794829 -4.863062 3.563133 56.348498 -11.409612 -15.217222 22.793442 31.440621 2.826961 2.250000 -1.536529 -0.102210 0.072570 -0.136010 0.037870 
-0.493220 16.623510 -4.023870 -1.153010 -5.955816 4.361341 -15.268374 13.692997 2.810492 1.188405 0.129735 -4.902689 -7.569126 6.643389 14.625441 0.085729 4.589569 3.239940 0.215490 0.026890 0.014850 18.212636 -10.072175 3.399116 -2.599078 4.430744 -35.652815 2.499671 -3.487789 17.772515 0.084026 -2.084244 3.699408 -0.023160 0.425480 0.304640 -3.269935 -2.917415 -7.433976 6.435709 -3.711073 9.443814 -5.260219 -3.260874 -2.562862 3.439594 -2.543831 -6.258447 -5.483641 7.893423 28.506004 2.467920 6.120450 -2.549360 -18.266365 5.789501 -1.494027 -50.587839 -0.641109 -5.627768 -2.036106 -13.663826 -0.987816 -3.887233 2.938096 0.308290 0.237690 -0.014280 0.347140 11.919782 -5.385090 3.688014 56.644226 -12.107895 -15.745470 24.031577 32.912367 3.364275 2.227303 -1.557018 -0.113160 0.076080 -0.122100 0.036410 
-0.520270 16.625020 -3.978460 -1.332353 -6.411910 4.382277 -15.263500 13.718466 2.784238 1.298925 0.144991 -4.746078 -7.220731 6.658812 15.097518 0.097806 4.627149 3.230890 0.193220 0.001420 0.000310 18.217845 -10.071110 3.396381 -1.962002 4.472393 -35.106812 2.565785 -3.389847 16.939943 0.101425 -2.015420 3.734136 -0.039040 0.438870 0.308810 -3.279676 -2.947261 -7.405650 6.744350 -3.963903 9.212332 -5.466957 -3.526365 -2.467506 3.588758 -2.453703 -6.367213 -5.242124 8.174450 28.083970 2.303380 6.605970 -2.085550 -17.596932 6.170533 -1.391195 -50.516315 0.161514 -5.981142 -1.312505 -13.505843 -1.047739 -3.904861 2.936875 0.300200 0.250380 -0.024140 0.343930 10.964157 -5.908031 3.838730 57.083136 -12.807525 -16.338642 24.998566 34.349029 3.855334 2.208085 -1.583793 -0.117030 0.069940 -0.111640 0.037460 
-0.546380 16.631410 -3.930540 -1.571451 -6.915020 4.362858 -15.254361 13.749941 2.754325 1.410701 0.130468 -4.667661 -6.733023 6.657137 15.764337 0.118149 4.655912 3.221547 0.174880 -0.021580 -0.010730 18.223544 -10.079737 3.398154 -1.379573 4.504925 -34.459971 2.813967 -3.344512 16.161481 0.112534 -1.966508 3.760610 -0.059560 0.445780 0.317040 -3.294667 -2.969091 -7.384579 7.117217 -4.199344 9.037870 -5.654075 -3.769379 -2.405491 3.750017 -2.317220 -6.520939 -4.942800 8.431951 27.855576 2.286530 7.045320 -1.544710 -16.894170 6.510612 -1.253899 -50.585813 1.008474 -6.372279 -0.460149 -13.260351 -1.112893 -3.918461 2.942542 0.291440 0.258500 -0.029380 0.340450 9.947296 -6.406029 4.034730 57.552689 -13.587625 -17.022323 25.797271 35.917526 4.362746 2.190836 -1.615488 -0.111670 0.055210 -0.104890 0.039990 
-0.572260 16.640580 -3.878990 -1.933533 -7.431536 4.329340 -15.240541 13.780779 2.714372 1.645339 0.096594 -4.591194 -6.154939 6.637834 16.494264 0.133759 4.687856 3.211699 0.156790 -0.044340 -0.018950 18.233153 -10.096601 3.400757 -0.775094 4.541751 -33.680293 3.155681 -3.323048 15.399123 0.122590 -1.932717 3.783614 -0.077330 0.452420 0.321310 -3.321921 -2.971631 -7.358306 7.651960 -4.429704 8.836659 -5.799341 -4.002716 -2.312218 3.909134 -2.133281 -6.628689 -4.557224 8.619482 27.645427 2.251510 7.458670 -1.043810 -16.227273 6.917632 -1.162017 -50.743366 1.834425 -6.764072 0.414746 -12.901852 -1.174325 -3.934026 2.940527 0.283970 0.266710 -0.035380 0.336240 8.955344 -7.011534 4.217705 57.915620 -14.416045 -17.735475 26.656761 37.826219 4.992160 2.168604 -1.652264 -0.110510 0.044480 -0.099440 0.040450 
-0.600030 16.650560 -3.823960 -2.220785 -8.014252 4.236352 -15.234572 13.820473 2.680304 1.845594 0.065756 -4.481176 -5.598867 6.637350 17.296067 0.152336 4.738427 3.197622 0.132080 -0.074180 -0.030650 18.233963 -10.112399 3.395141 -0.314863 4.526816 -32.781120 3.598481 -3.327295 14.623114 0.132226 -1.913901 3.802041 -0.098620 0.463160 0.321810 -3.323445 -2.998202 -7.333844 7.958372 -4.601467 8.608161 -5.674745 -4.203132 -2.280424 3.996774 -1.991618 -6.719368 -4.279300 8.832370 27.594921 2.215430 7.857110 -0.439500 -15.534185 7.411271 -1.059572 -50.988611 2.743193 -7.164053 1.082993 -12.504464 -1.215560 -3.952376 2.931368 0.277180 0.275510 -0.044430 0.329550 8.107751 -7.634316 4.345183 58.038302 -15.169516 -18.298694 27.351407 39.507292 5.592350 2.149529 -1.681038 -0.113370 0.038950 -0.089120 0.040580 
-0.630470 16.658080 -3.767810 -2.493780 -8.595683 4.108444 -15.237271 13.862011 2.643052 2.096693 0.015331 -4.403531 -5.061803 6.663174 18.236623 0.170854 4.811996 3.176091 0.102980 -0.108150 -0.043990 18.227140 -10.127596 3.385141 0.143806 4.492160 -31.785882 4.016071 -3.328086 13.855644 0.142541 -1.907790 3.816836 -0.119620 0.476730 0.320120 -3.300518 -3.031068 -7.304170 8.024501 -4.706555 8.302467 -5.304792 -4.376404 -2.167100 4.062799 -1.720966 -6.776789 -3.784660 8.981239 27.626082 2.103080 8.311130 0.288190 -14.708084 7.974307 -0.949022 -51.330787 3.633581 -7.580782 1.482100 -12.119250 -1.236330 -3.974171 2.919109 0.269410 0.287670 -0.056300 0.322170 7.200700 -8.402330 4.432355 58.192659 -15.888738 -18.878858 27.987516 41.452674 6.274960 2.126264 -1.715256 -0.121030 0.035460 -0.077170 0.039410 
-0.658800 16.666010 -3.711340 -2.796745 -9.156934 3.944497 -15.239939 13.905409 2.605843 2.413933 -0.061326 -4.351489 -4.559054 6.711618 19.293035 0.188293 4.907814 3.145968 0.077040 -0.142410 -0.053850 18.219609 -10.144127 3.373646 0.565835 4.434597 -30.698985 4.431309 -3.330827 13.070507 0.151029 -1.912828 3.828553 -0.138820 0.488120 0.318090 -3.276163 -3.067134 -7.277953 8.097600 -4.807574 8.002058 -4.813520 -4.547329 -2.080988 4.092261 -1.465072 -6.816576 -3.331487 9.118909 27.788824 1.985510 8.734280 1.059040 -13.989552 8.495929 -0.819393 -51.662815 4.594519 -8.012596 1.678595 -11.731739 -1.245256 -3.993490 2.906532 0.265100 0.299000 -0.068540 0.314950 6.475144 -9.113714 4.467845 58.114950 -16.481005 -19.300324 28.410577 43.082667 6.860116 2.105554 -1.746270 -0.130740 0.031100 -0.066720 0.035170 
-0.685680 16.672950 -3.656020 -3.005871 -9.775278 3.765013 -15.246486 13.945878 2.574170 2.641156 -0.141418 -4.317539 -4.065355 6.767544 20.435843 0.207504 5.014839 3.113194 0.052620 -0.176930 -0.058720 18.208244 -10.161518 3.361233 0.866527 4.346311 -29.637991 4.856367 -3.344046 12.319608 0.155448 -1.925670 3.836798 -0.159350 0.498540 0.314040 -3.239188 -3.100611 -7.255614 7.984639 -4.865828 7.719742 -4.262113 -4.692202 -2.047580 4.119377 -1.180318 -6.843376 -2.821923 9.282873 28.020186 1.910780 9.204560 1.751480 -13.148874 9.128116 -0.687537 -52.082641 5.611523 -8.499853 1.684406 -11.445098 -1.249866 -4.009666 2.888826 0.265480 0.307560 -0.079170 0.306840 5.648319 -9.933511 4.474216 58.130640 -16.984215 -19.700784 28.820627 44.819699 7.507392 2.084536 -1.777409 -0.142050 0.029840 -0.057200 0.028830 
-0.710730 16.678650 -3.603000 -3.190770 -10.496468 3.565190 -15.252548 13.979236 2.544570 2.860023 -0.224145 -4.278583 -3.630778 6.850722 21.650878 0.224021 5.141925 3.073005 0.032320 -0.208320 -0.057240 18.198796 -10.178802 3.349787 1.183045 4.252843 -28.565126 5.180991 -3.337523 11.567620 0.157724 -1.937932 3.844731 -0.176080 0.505920 0.306270 -3.204350 -3.123374 -7.234810 7.847451 -4.891380 7.454035 -3.700822 -4.803208 -2.028338 4.120035 -0.926979 -6.829585 -2.365745 9.437401 28.299776 1.814960 9.664220 2.281330 -12.409866 9.773402 -0.590003 -52.477202 6.587324 -8.955082 1.833076 -11.040836 -1.258467 -4.024327 2.863176 0.271640 0.312910 -0.088310 0.297520 4.972583 -10.739444 4.445646 58.191529 -17.363779 -20.098341 29.045933 46.862735 8.194110 2.061541 -1.809073 -0.157270 0.032920 -0.049470 0.019000 
